<svg width="20" height="20" viewBox="0 0 20 20" fill="none" xmlns="http://www.w3.org/2000/svg">
<g clip-path="url(#clip0_16_115)">
<path d="M13.333 6.66666V6.66666C13.333 3.445 10.7213 0.833328 7.49968 0.833328H7.08301C3.63123 0.833328 0.833008 3.63155 0.833008 7.08333V12.2917V20" stroke="currentColor" stroke-width="1.5"/>
<path d="M7.5 10.6667C7.5 8.45753 9.29086 6.66667 11.5 6.66667H15.1667C17.3758 6.66667 19.1667 8.45753 19.1667 10.6667V10.8333H7.5V10.6667Z" stroke="currentColor" stroke-width="1.5"/>
<path d="M8.33496 13.3344L8.33292 13.3333" stroke="currentColor" stroke-width="2" stroke-linecap="round" stroke-linejoin="round"/>
<path d="M11.668 13.3344L11.6659 13.3333" stroke="currentColor" stroke-width="2" stroke-linecap="round" stroke-linejoin="round"/>
<path d="M15.002 13.3344L14.9999 13.3333" stroke="currentColor" stroke-width="2" stroke-linecap="round" stroke-linejoin="round"/>
<path d="M18.335 13.3344L18.3329 13.3333" stroke="currentColor" stroke-width="2" stroke-linecap="round" stroke-linejoin="round"/>
<path d="M8.33496 16.252L8.33292 16.251" stroke="currentColor" stroke-width="2" stroke-linecap="round" stroke-linejoin="round"/>
<path d="M11.668 16.252L11.6659 16.251" stroke="currentColor" stroke-width="2" stroke-linecap="round" stroke-linejoin="round"/>
<path d="M15.002 16.252L14.9999 16.251" stroke="currentColor" stroke-width="2" stroke-linecap="round" stroke-linejoin="round"/>
<path d="M18.335 16.252L18.3329 16.251" stroke="currentColor" stroke-width="2" stroke-linecap="round" stroke-linejoin="round"/>
<path d="M8.33496 19.1697L8.33292 19.1687" stroke="currentColor" stroke-width="2" stroke-linecap="round" stroke-linejoin="round"/>
<path d="M11.668 19.1697L11.6659 19.1687" stroke="currentColor" stroke-width="2" stroke-linecap="round" stroke-linejoin="round"/>
<path d="M15.002 19.1697L14.9999 19.1687" stroke="currentColor" stroke-width="2" stroke-linecap="round" stroke-linejoin="round"/>
<path d="M18.335 19.1697L18.3329 19.1687" stroke="currentColor" stroke-width="2" stroke-linecap="round" stroke-linejoin="round"/>
</g>
<defs>
<clipPath id="clip0_16_115">
<rect width="20" height="20" fill="white"/>
</clipPath>
</defs>
</svg>
