<svg width="228" height="44" viewBox="0 0 228 44" fill="none" xmlns="http://www.w3.org/2000/svg">
<path fill-rule="evenodd" clip-rule="evenodd" d="M31.3635 35.3004C32.2006 36.0227 32.3257 37.3281 31.6425 38.2133C28.6818 42.0565 25.4558 44.0033 22.0484 44.0033C21.937 44.0033 21.8269 44.0006 21.7168 43.9967C16.1332 43.7899 12.4292 38.3339 12.274 38.1007C11.6521 37.1664 11.8623 35.8729 12.7433 35.213C13.6267 34.5543 14.8431 34.7743 15.4675 35.7046C15.5225 35.7855 18.2543 39.736 21.8719 39.8553C24.0906 39.9481 26.3743 38.4956 28.6105 35.596C29.2937 34.7094 30.5288 34.5742 31.3635 35.3004Z" fill="#EC6B1E"/>
<rect x="25.2041" y="21.7917" width="7.33158" height="7.34594" rx="3.66579" fill="#EC6B1E"/>
<rect x="11.4644" y="21.7917" width="7.33159" height="7.34594" rx="3.66579" fill="#EC6B1E"/>
<path d="M43.172 22.8912C44.3146 21.6993 44.269 19.8112 43.0705 18.6761L24.201 0.789948C23.586 0.205978 22.7764 0.00166403 21.9982 0.00166403C21.205 0.00166403 20.4129 0.20724 19.7979 0.789948L11.339 8.80912V2.95934C11.339 1.32725 10.0074 0.00165345 8.36383 0.00165345C6.72152 0.00165345 5.38992 1.32725 5.38992 2.95934V14.4483L0.929675 18.6761C-0.268769 19.8125 -0.314422 21.6993 0.826953 22.8912C1.41666 23.5055 2.20675 23.8157 2.99683 23.8157C3.73999 23.8157 4.48442 23.5421 5.06526 22.9921L21.9995 6.93992L38.9349 22.9921C39.5158 23.5421 40.2589 23.8157 41.0021 23.8157C41.7934 23.8157 42.5835 23.5055 43.172 22.8912Z" fill="#EC6B1E"/>
<path d="M58.9976 40.5695H60.1162V30.8476H62.0484V29.8916H60.1162V28.1832C60.1162 27.1662 60.523 26.8815 61.3773 26.8815C61.6417 26.8815 61.9671 26.9222 62.0688 26.9425L62.0891 26.0069C61.845 25.9663 61.4993 25.9459 61.2552 25.9459C60.5637 25.9459 59.9332 26.1086 59.5468 26.4951C59.14 26.9018 58.9976 27.451 58.9976 28.2849V29.8916H57.5942V30.8476H58.9976V40.5695Z" fill="#EC6B1E"/>
<path d="M68.7923 40.8542C72.0059 40.8542 74.2838 38.4746 74.2838 35.2001C74.2838 31.9255 72.0059 29.5662 68.7923 29.5662C65.5788 29.5662 63.3009 31.9255 63.3009 35.2001C63.3009 38.4543 65.5788 40.8542 68.7923 40.8542ZM68.7923 39.8983C66.1076 39.8983 64.4602 37.8848 64.4602 35.2001C64.4602 32.5153 66.1076 30.5221 68.7923 30.5221C71.477 30.5221 73.1245 32.5153 73.1245 35.2001C73.1245 37.8848 71.477 39.8983 68.7923 39.8983Z" fill="#EC6B1E"/>
<path d="M77.0437 40.5695H78.1623V34.4272C78.1623 32.2509 78.9759 30.7052 80.664 30.7052C80.847 30.7052 81.0301 30.7052 81.2131 30.7459V29.6883C81.1114 29.6679 80.9284 29.6476 80.7453 29.6476C79.5047 29.6476 78.4064 30.4611 78.0809 31.5391H78.0606V29.8916H77.0233C77.0437 30.3798 77.0437 31.0103 77.0437 31.4984V40.5695Z" fill="#EC6B1E"/>
<path d="M91.2452 40.8949C93.9503 40.8949 96.1672 39.7153 96.1672 37.2746C96.1672 35.0984 94.3774 34.4475 92.6893 34.0611L91.6927 33.8374C90.7571 33.634 90.1469 33.4103 90.1469 32.8001C90.1469 32.2916 90.6554 31.9865 91.4689 31.9865C92.4045 31.9865 93.2791 32.3933 93.8079 33.0442L95.8621 31.1933C94.8859 30.095 93.1571 29.5662 91.5096 29.5662C89.13 29.5662 86.9741 30.7052 86.9741 33.0645C86.9741 35.2407 88.7029 35.9526 90.33 36.3187L91.4283 36.5831C92.3435 36.7865 92.9944 36.9289 92.9944 37.4983C92.9944 38.1288 92.3028 38.4339 91.3673 38.4339C90.1266 38.4339 89.252 37.9051 88.6012 37.0916L86.5063 39.0848C87.6249 40.2848 89.3944 40.8949 91.2452 40.8949Z" fill="#EC6B1E"/>
<path d="M98.6972 40.5695H102.012V32.4747H104.839V29.8916H102.012V26.9832H98.6972V29.8916H97.4565V32.4747H98.6972V40.5695Z" fill="#EC6B1E"/>
<path d="M110.195 40.9153C111.761 40.9153 112.758 40.3661 113.409 39.6136V40.5695H116.642C116.622 40.0204 116.622 39.4509 116.622 38.9221V29.8916H113.307V36.1356C113.307 37.1526 112.737 38.1899 111.395 38.1899C110.053 38.1899 109.524 37.2136 109.524 35.8712V29.8916H106.188V36.5017C106.188 39.2678 107.673 40.9153 110.195 40.9153Z" fill="#EC6B1E"/>
<path d="M123.755 40.8339C125.362 40.8339 126.643 40.1831 127.273 39.4305H127.294V40.5695H130.487C130.467 40.1017 130.467 39.6339 130.467 39.1661V26.0273H127.172V30.8679C126.541 30.1967 125.362 29.5866 123.836 29.5866C120.684 29.5866 118.629 32.0272 118.629 35.2204C118.629 38.4339 120.785 40.8339 123.755 40.8339ZM124.67 38.0882C122.982 38.0882 122.026 36.9085 122.026 35.2407C122.026 33.634 123.002 32.373 124.67 32.373C126.358 32.373 127.334 33.634 127.334 35.2407C127.334 36.9085 126.358 38.0882 124.67 38.0882Z" fill="#EC6B1E"/>
<path d="M138.229 40.8949C140.914 40.8949 142.724 39.6136 143.68 38.4949L141.727 36.6848C141.117 37.356 140.1 38.3322 138.392 38.3322C136.785 38.3322 135.748 37.4373 135.565 36.095H143.517C143.538 35.7899 143.538 35.4645 143.538 35.2001C143.538 31.9459 141.585 29.5866 138.128 29.5866C134.772 29.5866 132.453 31.9255 132.453 35.1797C132.453 38.7594 134.853 40.8949 138.229 40.8949ZM135.606 33.9391C135.748 32.6577 136.663 31.8848 138.046 31.8848C139.409 31.8848 140.283 32.6781 140.385 33.9391H135.606Z" fill="#EC6B1E"/>
<path d="M145.637 40.5695H148.932V34.4069C148.932 33.3696 149.542 32.2916 150.925 32.2916C152.247 32.2916 152.918 33.3492 152.918 34.6713V40.5695H156.213V33.9594C156.213 31.2137 154.647 29.5459 152.145 29.5459C150.579 29.5459 149.501 30.1764 148.85 30.9289V29.8916H145.616C145.637 30.4611 145.637 31.0103 145.637 31.5594V40.5695Z" fill="#EC6B1E"/>
<path d="M159.237 40.5695H162.552V32.4747H165.379V29.8916H162.552V26.9832H159.237V29.8916H157.996V32.4747H159.237V40.5695Z" fill="#EC6B1E"/>
<path d="M170.574 40.8949C173.279 40.8949 175.496 39.7153 175.496 37.2746C175.496 35.0984 173.707 34.4475 172.018 34.0611L171.022 33.8374C170.086 33.634 169.476 33.4103 169.476 32.8001C169.476 32.2916 169.985 31.9865 170.798 31.9865C171.734 31.9865 172.608 32.3933 173.137 33.0442L175.191 31.1933C174.215 30.095 172.486 29.5662 170.839 29.5662C168.459 29.5662 166.303 30.7052 166.303 33.0645C166.303 35.2407 168.032 35.9526 169.659 36.3187L170.757 36.5831C171.673 36.7865 172.324 36.9289 172.324 37.4983C172.324 38.1288 171.632 38.4339 170.696 38.4339C169.456 38.4339 168.581 37.9051 167.93 37.0916L165.835 39.0848C166.954 40.2848 168.724 40.8949 170.574 40.8949Z" fill="#EC6B1E"/>
<path d="M62.619 18.2045C64.2258 18.2045 65.5071 17.5536 66.1376 16.8011H66.158V17.9401H69.3105V7.26222H66.097V8.25882C65.4461 7.48595 64.2258 6.95714 62.7004 6.95714C59.5479 6.95714 57.4937 9.39779 57.4937 12.591C57.4937 15.7842 59.6496 18.2045 62.619 18.2045ZM63.5343 15.4587C61.8462 15.4587 60.8902 14.2791 60.8902 12.6113C60.8902 11.0046 61.8665 9.74355 63.5343 9.74355C65.2224 9.74355 66.1986 11.0046 66.1986 12.6113C66.1986 14.2791 65.2224 15.4587 63.5343 15.4587Z" fill="#EC6B1E"/>
<path d="M77.0329 18.2655C79.4328 18.2655 81.3243 17.0045 82.1989 15.3164L79.4328 13.9944C79.0464 14.8486 78.2939 15.4587 77.1346 15.4587C75.4871 15.4587 74.5515 14.2588 74.5515 12.6113C74.5515 10.9435 75.5481 9.74355 77.1346 9.74355C78.2939 9.74355 79.0261 10.3537 79.3922 11.2079L82.1786 9.9266C81.365 8.19781 79.5955 6.95714 77.1346 6.95714C73.738 6.95714 71.2973 9.27576 71.2973 12.652C71.2973 15.7842 73.5549 18.2655 77.0329 18.2655Z" fill="#EC6B1E"/>
<path d="M88.97 18.2655C91.37 18.2655 93.2615 17.0045 94.136 15.3164L91.3699 13.9944C90.9835 14.8486 90.231 15.4587 89.0717 15.4587C87.4242 15.4587 86.4886 14.2588 86.4886 12.6113C86.4886 10.9435 87.4852 9.74355 89.0717 9.74355C90.231 9.74355 90.9632 10.3537 91.3293 11.2079L94.1157 9.9266C93.3021 8.19781 91.5327 6.95714 89.0717 6.95714C85.6751 6.95714 83.2344 9.27576 83.2344 12.652C83.2344 15.7842 85.492 18.2655 88.97 18.2655Z" fill="#EC6B1E"/>
<path d="M101.029 18.2655C104.487 18.2655 106.948 15.9876 106.948 12.6317C106.948 9.25542 104.487 6.95714 101.07 6.95714C97.6529 6.95714 95.1716 9.23508 95.1716 12.6317C95.1716 15.9672 97.5919 18.2655 101.029 18.2655ZM101.049 15.4587C99.3613 15.4587 98.4054 14.2791 98.4054 12.6113C98.4054 11.0046 99.3817 9.74355 101.049 9.74355C102.738 9.74355 103.714 11.0046 103.714 12.6113C103.714 14.2791 102.738 15.4587 101.049 15.4587Z" fill="#EC6B1E"/>
<path d="M108.931 17.9401H112.206V11.7774C112.206 10.7402 112.735 9.6622 114.118 9.6622C115.44 9.6622 116.03 10.7198 116.03 12.0418V17.9401H119.304V11.7774C119.304 10.7402 119.833 9.6622 121.216 9.6622C122.538 9.6622 123.128 10.7198 123.128 12.0418V17.9401H126.402V11.33C126.402 8.58424 124.857 6.91646 122.294 6.91646C120.341 6.91646 119.202 7.75035 118.552 8.48255C117.88 7.48595 116.782 6.91646 115.338 6.91646C113.772 6.91646 112.775 7.54696 112.125 8.2995V7.26222H108.911C108.931 7.83171 108.931 8.38085 108.931 8.93V17.9401Z" fill="#EC6B1E"/>
<path d="M128.952 17.9401H132.227V11.7774C132.227 10.7402 132.756 9.6622 134.139 9.6622C135.461 9.6622 136.051 10.7198 136.051 12.0418V17.9401H139.325V11.7774C139.325 10.7402 139.854 9.6622 141.237 9.6622C142.559 9.6622 143.149 10.7198 143.149 12.0418V17.9401H146.423V11.33C146.423 8.58424 144.878 6.91646 142.315 6.91646C140.362 6.91646 139.223 7.75035 138.573 8.48255C137.901 7.48595 136.803 6.91646 135.359 6.91646C133.793 6.91646 132.796 7.54696 132.146 8.2995V7.26222H128.932C128.952 7.83171 128.952 8.38085 128.952 8.93V17.9401Z" fill="#EC6B1E"/>
<path d="M154.18 18.2655C157.638 18.2655 160.099 15.9876 160.099 12.6317C160.099 9.25542 157.638 6.95714 154.221 6.95714C150.804 6.95714 148.322 9.23508 148.322 12.6317C148.322 15.9672 150.743 18.2655 154.18 18.2655ZM154.2 15.4587C152.512 15.4587 151.556 14.2791 151.556 12.6113C151.556 11.0046 152.533 9.74355 154.2 9.74355C155.889 9.74355 156.865 11.0046 156.865 12.6113C156.865 14.2791 155.889 15.4587 154.2 15.4587Z" fill="#EC6B1E"/>
<path d="M166.577 18.2045C168.184 18.2045 169.465 17.5536 170.096 16.8011H170.116V17.9401H173.309C173.289 17.4723 173.289 17.0045 173.289 16.5367V3.39785H169.994V8.23848C169.364 7.5673 168.184 6.95714 166.659 6.95714C163.506 6.95714 161.452 9.39779 161.452 12.591C161.452 15.8045 163.608 18.2045 166.577 18.2045ZM167.492 15.4587C165.804 15.4587 164.848 14.2791 164.848 12.6113C164.848 11.0046 165.825 9.74355 167.492 9.74355C169.181 9.74355 170.157 11.0046 170.157 12.6113C170.157 14.2791 169.181 15.4587 167.492 15.4587Z" fill="#EC6B1E"/>
<path d="M180.421 18.2045C182.028 18.2045 183.309 17.5536 183.94 16.8011H183.96V17.9401H187.113V7.26222H183.899V8.25882C183.248 7.48595 182.028 6.95714 180.502 6.95714C177.35 6.95714 175.296 9.39779 175.296 12.591C175.296 15.7842 177.452 18.2045 180.421 18.2045ZM181.336 15.4587C179.648 15.4587 178.692 14.2791 178.692 12.6113C178.692 11.0046 179.669 9.74355 181.336 9.74355C183.024 9.74355 184.001 11.0046 184.001 12.6113C184.001 14.2791 183.024 15.4587 181.336 15.4587Z" fill="#EC6B1E"/>
<path d="M190.36 17.9401H193.676V9.84525H196.503V7.26222H193.676V4.35378H190.36V7.26222H189.12V9.84525H190.36V17.9401Z" fill="#EC6B1E"/>
<path d="M199.601 6.69274C200.679 6.69274 201.492 5.9402 201.492 4.88259C201.492 3.84531 200.679 3.09277 199.601 3.09277C198.502 3.09277 197.709 3.84531 197.709 4.88259C197.709 5.9402 198.523 6.69274 199.601 6.69274ZM197.953 17.9401H201.289V7.26222H197.953V17.9401Z" fill="#EC6B1E"/>
<path d="M209.138 18.2655C212.596 18.2655 215.057 15.9876 215.057 12.6317C215.057 9.25542 212.596 6.95714 209.179 6.95714C205.762 6.95714 203.281 9.23508 203.281 12.6317C203.281 15.9672 205.701 18.2655 209.138 18.2655ZM209.159 15.4587C207.471 15.4587 206.515 14.2791 206.515 12.6113C206.515 11.0046 207.491 9.74355 209.159 9.74355C210.847 9.74355 211.823 11.0046 211.823 12.6113C211.823 14.2791 210.847 15.4587 209.159 15.4587Z" fill="#EC6B1E"/>
<path d="M217.041 17.9401H220.336V11.7774C220.336 10.7402 220.946 9.6622 222.329 9.6622C223.651 9.6622 224.322 10.7198 224.322 12.0418V17.9401H227.617V11.33C227.617 8.58424 226.051 6.91646 223.549 6.91646C221.983 6.91646 220.905 7.54696 220.254 8.2995V7.26222H217.02C217.041 7.83171 217.041 8.38085 217.041 8.93V17.9401Z" fill="#EC6B1E"/>
</svg>
