<svg width="20" height="20" viewBox="0 0 20 20" fill="none" xmlns="http://www.w3.org/2000/svg">
<circle cx="9.99967" cy="10" r="9.16667" stroke="currentColor" stroke-width="1.5"/>
<path d="M6.9651 15H13.1304V13.7791H10.8404C10.5017 13.7791 9.74287 13.8066 9.33637 13.7929C9.83772 13.299 10.0545 12.7366 10.0545 12.1605C10.0545 11.6667 9.89192 11.1866 9.64802 10.5281H11.5721V9.32099H9.28217C9.09247 8.8546 9.01117 8.33333 9.01117 7.90809C9.01117 7.00274 9.45832 6.27572 10.4746 6.27572C11.5044 6.27572 11.9109 6.97531 11.9515 7.79835L13.3337 7.70233C13.3066 6.08368 12.3716 5 10.5152 5C8.57756 5 7.48 6.30316 7.48 7.79835C7.48 8.47051 7.60195 8.8546 7.751 9.36214H6.66699V10.5281H8.23881C8.49626 11.0905 8.63176 11.6255 8.63176 12.0919C8.63176 13.011 8.18461 13.7106 6.9651 13.8752V15Z" fill="currentColor"/>
</svg>
