<svg width="20" height="20" viewBox="0 0 20 20" fill="none" xmlns="http://www.w3.org/2000/svg">
<path d="M1.66699 8.4862C1.66699 7.53265 2.12031 6.63589 2.88814 6.07048L10.0003 0.833328L17.1125 6.07048C17.8803 6.63589 18.3337 7.53265 18.3337 8.4862V18.1667C18.3337 18.7189 17.8859 19.1667 17.3337 19.1667H12.5003H7.50033H2.66699C2.11471 19.1667 1.66699 18.7189 1.66699 18.1667V8.4862Z" stroke="#777584" stroke-width="1.5" stroke-linecap="round" stroke-linejoin="round"/>
<path d="M7.95455 15.7478C7.70351 15.7478 7.5 15.5443 7.5 15.2933L7.5 13.2478C7.5 11.8671 8.61929 10.7478 10 10.7478V10.7478C11.3807 10.7478 12.5 11.8671 12.5 13.2478L12.5 15.2933C12.5 15.5443 12.2965 15.7478 12.0455 15.7478L7.95455 15.7478Z" stroke="#777584" stroke-width="1.5"/>
<circle cx="10" cy="8.2478" r="1.75" stroke="#777584" stroke-width="1.5"/>
</svg>
